<svg version="1.1" id="Layer_1" xmlns="http://www.w3.org/2000/svg" xmlns:xlink="http://www.w3.org/1999/xlink" x="0px" y="0px"
	 width="100%" viewBox="0 0 500 500" enable-background="new 0 0 500 500" xml:space="preserve">
<path fill="#010101" opacity="1.000000" stroke="none" 
	d="
M280.000000,0.999998 
	C353.594025,1.000000 427.188049,1.000000 501.000000,1.000000 
	C501.000000,75.020752 501.000000,149.041718 500.653046,223.899734 
	C499.865448,223.614700 499.242188,222.528702 499.012238,221.364975 
	C496.630585,209.311310 495.237213,196.976730 491.826965,185.225815 
	C469.042267,106.714714 419.775726,51.417850 344.610687,19.342052 
	C324.801971,10.888901 304.015411,5.750573 282.649231,2.960999 
	C281.697021,2.836680 280.880005,1.677272 280.000000,0.999998 
z"/>
<path fill="#010101" opacity="1.000000" stroke="none" 
	d="
M501.000000,280.000000 
	C501.000000,353.593689 501.000000,427.187408 501.000000,501.000000 
	C427.645905,501.000000 354.291626,501.000000 280.094604,500.659180 
	C279.864990,499.907166 280.431671,499.245880 281.098083,499.122314 
	C290.575134,497.365479 300.222626,496.288635 309.528259,493.884064 
	C385.842377,474.164368 441.620422,428.837555 476.672119,358.316040 
	C488.588013,334.341980 495.787994,308.775726 499.096252,282.155212 
	C499.193848,281.370056 500.341797,280.715454 501.000000,280.000000 
z"/>
<path fill="#010101" opacity="1.000000" stroke="none" 
	d="
M221.000000,501.000000 
	C147.739639,501.000000 74.479271,501.000000 1.000000,501.000000 
	C1.000000,427.979248 1.000000,354.958282 1.343243,281.078033 
	C2.731546,284.921753 3.854021,289.609070 4.810230,294.330078 
	C23.767748,387.927277 78.028877,451.783020 166.850815,486.365784 
	C183.482315,492.841217 200.886780,496.572601 218.564056,499.025818 
	C219.313293,499.129791 222.535324,497.572998 221.000000,501.000000 
z"/>
<path fill="#010101" opacity="1.000000" stroke="none" 
	d="
M0.999999,220.000000 
	C1.000000,147.072632 1.000000,74.145256 1.000000,1.000000 
	C74.354080,1.000000 147.708389,1.000000 221.892609,1.347806 
	C221.758789,2.126806 220.828445,2.823635 219.826294,2.949684 
	C202.459610,5.134063 185.471588,8.961192 169.011093,14.917933 
	C102.638985,38.936726 54.127922,82.730545 23.844507,146.537018 
	C13.087551,169.201691 6.323855,193.082443 2.925539,217.935257 
	C2.821377,218.697037 1.665534,219.314987 0.999999,220.000000 
z"/>
<path fill="#EFEFEF" opacity="1.000000" stroke="none" 
	d="
M0.999999,220.468658 
	C1.665534,219.314987 2.821377,218.697037 2.925539,217.935257 
	C6.323855,193.082443 13.087551,169.201691 23.844507,146.537018 
	C54.127922,82.730545 102.638985,38.936726 169.011093,14.917933 
	C185.471588,8.961192 202.459610,5.134063 219.826294,2.949684 
	C220.828445,2.823635 221.758789,2.126806 222.361267,1.347806 
	C241.020889,1.000000 260.041779,1.000000 279.531342,0.999998 
	C280.880005,1.677272 281.697021,2.836680 282.649231,2.960999 
	C304.015411,5.750573 324.801971,10.888901 344.610687,19.342052 
	C419.775726,51.417850 469.042267,106.714714 491.826965,185.225815 
	C495.237213,196.976730 496.630585,209.311310 499.012238,221.364975 
	C499.242188,222.528702 499.865448,223.614700 500.653046,224.368393 
	C501.000000,242.354233 501.000000,260.708466 501.000000,279.531342 
	C500.341797,280.715454 499.193848,281.370056 499.096252,282.155212 
	C495.787994,308.775726 488.588013,334.341980 476.672119,358.316040 
	C441.620422,428.837555 385.842377,474.164368 309.528259,493.884064 
	C300.222626,496.288635 290.575134,497.365479 281.098083,499.122314 
	C280.431671,499.245880 279.864990,499.907166 279.625977,500.659180 
	C260.645782,501.000000 241.291550,501.000000 221.468658,501.000000 
	C222.535324,497.572998 219.313293,499.129791 218.564056,499.025818 
	C200.886780,496.572601 183.482315,492.841217 166.850815,486.365784 
	C78.028877,451.783020 23.767748,387.927277 4.810230,294.330078 
	C3.854021,289.609070 2.731546,284.921753 1.343243,280.609375 
	C1.000000,260.979095 1.000000,240.958206 0.999999,220.468658 
M379.965881,460.541016 
	C385.611755,456.723816 391.387848,453.084595 396.884003,449.062775 
	C479.304413,388.752258 515.745728,282.925812 487.960052,184.751923 
	C459.280609,83.420174 370.468109,11.358665 265.709503,5.242651 
	C207.519852,1.845424 153.745255,16.512621 107.113892,51.580215 
	C28.808683,110.467087 -5.537895,189.678299 7.700459,286.869476 
	C17.929688,361.968781 57.552235,419.957947 121.714226,460.365387 
	C172.280273,492.210480 227.810104,502.764648 286.770782,494.582947 
	C319.903564,489.985260 350.827484,478.586365 379.965881,460.541016 
z"/>
<path fill="#010101" opacity="1.000000" stroke="none" 
	d="
M379.654297,460.732788 
	C350.827484,478.586365 319.903564,489.985260 286.770782,494.582947 
	C227.810104,502.764648 172.280273,492.210480 121.714226,460.365387 
	C57.552235,419.957947 17.929688,361.968781 7.700459,286.869476 
	C-5.537895,189.678299 28.808683,110.467087 107.113892,51.580215 
	C153.745255,16.512621 207.519852,1.845424 265.709503,5.242651 
	C370.468109,11.358665 459.280609,83.420174 487.960052,184.751923 
	C515.745728,282.925812 479.304413,388.752258 396.884003,449.062775 
	C391.387848,453.084595 385.611755,456.723816 379.654297,460.732788 
M122.073158,338.707794 
	C122.599312,338.689941 123.125465,338.672089 124.251839,338.194824 
	C124.110161,337.898773 124.035072,337.537201 123.817360,337.315948 
	C94.548584,307.570068 90.939178,257.109558 120.894424,222.870438 
	C121.511620,222.164963 121.752998,221.130692 122.169693,220.249802 
	C121.820442,220.005112 121.471184,219.760437 121.121925,219.515747 
	C119.823814,220.903351 118.418015,222.205917 117.244324,223.691803 
	C106.133110,237.758484 99.347900,253.601013 98.259140,271.597321 
	C96.720184,297.034912 103.641563,319.565216 122.073158,338.707794 
M133.924667,346.272705 
	C131.282486,344.226868 128.640305,342.181030 125.998123,340.135193 
	C125.621269,340.645264 125.244423,341.155334 124.867577,341.665405 
	C127.567535,343.799408 130.267487,345.933411 133.315094,348.641479 
	C134.014069,349.089233 134.738235,349.502350 135.408432,349.989716 
	C164.929840,371.457458 209.573532,370.424500 239.580627,346.332642 
	C259.248077,330.542114 276.402161,312.638824 290.473724,291.777802 
	C292.373413,288.961548 294.292328,287.902740 297.675323,287.934479 
	C315.993774,288.106415 334.314697,288.016022 352.938416,288.016022 
	C357.084290,271.137329 361.195770,254.398575 365.307281,237.659821 
	C364.740265,237.460678 364.173279,237.261520 363.606293,237.062378 
	C363.006866,238.448730 362.366119,239.818909 361.815399,241.224365 
	C359.877350,246.170319 358.191254,251.227859 356.014221,256.065155 
	C344.966644,280.612640 321.372864,291.688110 295.918335,283.938385 
	C306.626343,267.527649 317.235687,251.268097 327.845032,235.008560 
	C328.209991,235.163834 328.574951,235.319107 328.939911,235.474380 
	C329.370819,240.635345 329.801697,245.796310 330.232574,250.957275 
	C330.844116,250.930420 331.455627,250.903580 332.067169,250.876740 
	C332.067169,248.691223 332.251373,246.487335 332.035370,244.323395 
	C331.091187,234.864517 332.739014,226.670837 340.023865,219.481049 
	C351.497955,208.156693 364.648102,203.077393 380.375885,206.739197 
	C401.530945,211.664612 414.701172,232.397278 410.907959,253.801392 
	C407.193573,274.760498 386.972137,289.264954 365.339600,286.499481 
	C363.343994,286.244385 361.337677,286.073273 359.336334,285.863159 
	C370.146271,293.817993 393.196716,286.836212 404.338898,273.005920 
	C418.025055,256.017822 416.556824,230.628342 400.968475,215.780716 
	C392.674225,207.880585 382.806671,203.638657 371.286011,203.530991 
	C354.395416,203.373123 342.113708,211.675125 332.845612,225.451675 
	C332.493774,225.238480 332.141968,225.025269 331.790161,224.812057 
	C331.790161,214.035004 331.790161,203.257935 331.790161,192.480881 
	C331.321106,192.434204 330.852081,192.387512 330.383026,192.340836 
	C330.159302,193.457108 329.834229,194.564072 329.730835,195.691376 
	C329.426758,199.007263 329.410889,202.361359 328.916901,205.645523 
	C327.987030,211.827438 325.303711,217.318146 318.563324,218.091156 
	C308.931793,219.195724 299.179565,219.247803 289.249542,219.761215 
	C289.249542,203.751450 289.227325,188.927261 289.258667,174.103195 
	C289.274902,166.430313 291.329987,163.729706 299.067261,163.135513 
	C308.350922,162.422546 317.697662,162.139847 327.008789,162.269363 
	C340.304657,162.454330 349.221863,169.118942 353.586914,181.748581 
	C354.020966,183.004471 354.393860,184.301193 355.004486,185.469543 
	C355.423492,186.271240 356.205200,186.883362 356.824799,187.580215 
	C355.190918,179.005951 352.415588,171.089539 349.975830,163.071030 
	C349.078949,160.123337 347.560913,159.395370 344.644165,159.406494 
	C316.985504,159.512070 289.326263,159.460205 261.667236,159.495972 
	C260.256927,159.497803 258.847107,159.886292 256.341431,160.256744 
	C257.853363,161.359146 258.214203,161.851990 258.572510,161.850174 
	C269.394440,161.795181 269.678406,166.449127 269.687683,174.816635 
	C269.712585,197.310440 269.773743,219.804184 269.817474,242.297958 
	C269.839172,253.461533 269.903595,264.625336 269.853424,275.788605 
	C269.824158,282.307190 267.891266,284.426575 261.573608,285.401978 
	C260.161377,285.620026 258.772369,285.988739 257.372681,286.288086 
	C257.434937,286.833221 257.497192,287.378387 257.559448,287.923523 
	C268.300262,287.923523 279.041107,287.923523 290.418854,287.923523 
	C272.693542,313.852448 252.673584,336.154388 226.447678,352.104034 
	C209.918976,362.156158 191.795822,364.874512 172.676376,362.380066 
	C158.462021,360.525574 146.009491,354.650116 133.924667,346.272705 
M175.495178,192.016159 
	C157.093018,194.158493 140.859360,201.085037 127.478546,214.424240 
	C142.419373,203.159256 158.776260,195.611710 177.847717,194.075134 
	C177.847717,213.624664 177.874680,232.768127 177.828690,251.911423 
	C177.817245,256.680145 175.254318,259.254669 170.512802,259.704956 
	C169.221039,259.827637 167.938782,260.050323 166.652161,260.227112 
	C166.702362,260.630096 166.752563,261.033051 166.802780,261.436035 
	C180.211243,261.436035 193.619705,261.436035 208.045471,261.436035 
	C206.762680,260.472900 206.440247,260.036865 206.052719,259.968231 
	C196.027939,258.192291 195.877670,258.031219 195.876343,247.811157 
	C195.872147,215.490128 195.874786,183.169098 195.874756,150.848068 
	C195.874756,149.257126 195.874741,147.666168 195.874741,145.920013 
	C206.602127,146.012955 216.791061,144.885666 226.256195,149.952927 
	C235.968872,155.152710 239.192398,164.756500 241.913498,174.769775 
	C242.469635,174.477615 243.025787,174.185471 243.581924,173.893326 
	C241.837555,163.866943 240.093185,153.840561 238.354843,143.848846 
	C203.680267,143.848846 169.578400,143.848846 135.266296,143.848846 
	C133.500793,154.037903 131.764191,164.060165 130.027588,174.082428 
	C130.546341,174.321426 131.065094,174.560440 131.583862,174.799438 
	C134.629669,164.932831 137.537170,155.046982 147.500320,149.870224 
	C157.151108,144.855774 167.386337,145.986099 177.896622,145.982269 
	C177.896622,160.948944 177.917465,175.414688 177.832901,189.879807 
	C177.828827,190.578308 176.896912,191.271378 175.495178,192.016159 
z"/>
<path fill="#F6F6F6" opacity="1.000000" stroke="none" 
	d="
M134.252563,346.880981 
	C146.009491,354.650116 158.462021,360.525574 172.676376,362.380066 
	C191.795822,364.874512 209.918976,362.156158 226.447678,352.104034 
	C252.673584,336.154388 272.693542,313.852448 290.418854,287.923523 
	C279.041107,287.923523 268.300262,287.923523 257.559448,287.923523 
	C257.497192,287.378387 257.434937,286.833221 257.372681,286.288086 
	C258.772369,285.988739 260.161377,285.620026 261.573608,285.401978 
	C267.891266,284.426575 269.824158,282.307190 269.853424,275.788605 
	C269.903595,264.625336 269.839172,253.461533 269.817474,242.297958 
	C269.773743,219.804184 269.712585,197.310440 269.687683,174.816635 
	C269.678406,166.449127 269.394440,161.795181 258.572510,161.850174 
	C258.214203,161.851990 257.853363,161.359146 256.341431,160.256744 
	C258.847107,159.886292 260.256927,159.497803 261.667236,159.495972 
	C289.326263,159.460205 316.985504,159.512070 344.644165,159.406494 
	C347.560913,159.395370 349.078949,160.123337 349.975830,163.071030 
	C352.415588,171.089539 355.190918,179.005951 356.824799,187.580215 
	C356.205200,186.883362 355.423492,186.271240 355.004486,185.469543 
	C354.393860,184.301193 354.020966,183.004471 353.586914,181.748581 
	C349.221863,169.118942 340.304657,162.454330 327.008789,162.269363 
	C317.697662,162.139847 308.350922,162.422546 299.067261,163.135513 
	C291.329987,163.729706 289.274902,166.430313 289.258667,174.103195 
	C289.227325,188.927261 289.249542,203.751450 289.249542,219.761215 
	C299.179565,219.247803 308.931793,219.195724 318.563324,218.091156 
	C325.303711,217.318146 327.987030,211.827438 328.916901,205.645523 
	C329.410889,202.361359 329.426758,199.007263 329.730835,195.691376 
	C329.834229,194.564072 330.159302,193.457108 330.383026,192.340836 
	C330.852081,192.387512 331.321106,192.434204 331.790161,192.480881 
	C331.790161,203.257935 331.790161,214.035004 331.790161,224.812057 
	C332.141968,225.025269 332.493774,225.238480 332.845612,225.451675 
	C342.113708,211.675125 354.395416,203.373123 371.286011,203.530991 
	C382.806671,203.638657 392.674225,207.880585 400.968475,215.780716 
	C416.556824,230.628342 418.025055,256.017822 404.338898,273.005920 
	C393.196716,286.836212 370.146271,293.817993 359.336334,285.863159 
	C361.337677,286.073273 363.343994,286.244385 365.339600,286.499481 
	C386.972137,289.264954 407.193573,274.760498 410.907959,253.801392 
	C414.701172,232.397278 401.530945,211.664612 380.375885,206.739197 
	C364.648102,203.077393 351.497955,208.156693 340.023865,219.481049 
	C332.739014,226.670837 331.091187,234.864517 332.035370,244.323395 
	C332.251373,246.487335 332.067169,248.691223 332.067169,250.876740 
	C331.455627,250.903580 330.844116,250.930420 330.232574,250.957275 
	C329.801697,245.796310 329.370819,240.635345 328.939911,235.474380 
	C328.574951,235.319107 328.209991,235.163834 327.845032,235.008560 
	C317.235687,251.268097 306.626343,267.527649 295.918335,283.938385 
	C321.372864,291.688110 344.966644,280.612640 356.014221,256.065155 
	C358.191254,251.227859 359.877350,246.170319 361.815399,241.224365 
	C362.366119,239.818909 363.006866,238.448730 363.606293,237.062378 
	C364.173279,237.261520 364.740265,237.460678 365.307281,237.659821 
	C361.195770,254.398575 357.084290,271.137329 352.938416,288.016022 
	C334.314697,288.016022 315.993774,288.106415 297.675323,287.934479 
	C294.292328,287.902740 292.373413,288.961548 290.473724,291.777802 
	C276.402161,312.638824 259.248077,330.542114 239.580627,346.332642 
	C209.573532,370.424500 164.929840,371.457458 135.408432,349.989716 
	C134.738235,349.502350 134.014069,349.089233 133.291595,348.095215 
	C133.596252,347.326294 133.924408,347.103638 134.252563,346.880981 
M308.718658,260.193085 
	C314.260010,251.923294 319.480713,243.411179 325.472595,235.481812 
	C328.661774,231.261368 327.414032,228.565140 324.210785,225.897247 
	C322.609650,224.563705 320.507446,223.199707 318.538757,223.046585 
	C308.887268,222.295898 299.204468,221.947708 289.255554,221.443253 
	C289.255554,240.365829 289.142487,258.131500 289.381653,275.892426 
	C289.416138,278.452881 291.144745,280.990479 292.089355,283.538666 
	C292.638580,283.457184 293.187805,283.375702 293.737030,283.294220 
	C298.582489,275.785095 303.427979,268.275970 308.718658,260.193085 
z"/>
<path fill="#F9F9F9" opacity="1.000000" stroke="none" 
	d="
M175.946106,191.991577 
	C176.896912,191.271378 177.828827,190.578308 177.832901,189.879807 
	C177.917465,175.414688 177.896622,160.948944 177.896622,145.982269 
	C167.386337,145.986099 157.151108,144.855774 147.500320,149.870224 
	C137.537170,155.046982 134.629669,164.932831 131.583862,174.799438 
	C131.065094,174.560440 130.546341,174.321426 130.027588,174.082428 
	C131.764191,164.060165 133.500793,154.037903 135.266296,143.848846 
	C169.578400,143.848846 203.680267,143.848846 238.354843,143.848846 
	C240.093185,153.840561 241.837555,163.866943 243.581924,173.893326 
	C243.025787,174.185471 242.469635,174.477615 241.913498,174.769775 
	C239.192398,164.756500 235.968872,155.152710 226.256195,149.952927 
	C216.791061,144.885666 206.602127,146.012955 195.874741,145.920013 
	C195.874741,147.666168 195.874756,149.257126 195.874756,150.848068 
	C195.874786,183.169098 195.872147,215.490128 195.876343,247.811157 
	C195.877670,258.031219 196.027939,258.192291 206.052719,259.968231 
	C206.440247,260.036865 206.762680,260.472900 208.045471,261.436035 
	C193.619705,261.436035 180.211243,261.436035 166.802780,261.436035 
	C166.752563,261.033051 166.702362,260.630096 166.652161,260.227112 
	C167.938782,260.050323 169.221039,259.827637 170.512802,259.704956 
	C175.254318,259.254669 177.817245,256.680145 177.828690,251.911423 
	C177.874680,232.768127 177.847717,213.624664 177.847717,194.075134 
	C158.776260,195.611710 142.419373,203.159256 127.478546,214.424240 
	C140.859360,201.085037 157.093018,194.158493 175.946106,191.991577 
z"/>
<path fill="#E0E0E0" opacity="1.000000" stroke="none" 
	d="
M121.793083,338.075409 
	C103.641563,319.565216 96.720184,297.034912 98.259140,271.597321 
	C99.347900,253.601013 106.133110,237.758484 117.244324,223.691803 
	C118.418015,222.205917 119.823814,220.903351 121.121925,219.515747 
	C121.471184,219.760437 121.820442,220.005112 122.169693,220.249802 
	C121.752998,221.130692 121.511620,222.164963 120.894424,222.870438 
	C90.939178,257.109558 94.548584,307.570068 123.817360,337.315948 
	C124.035072,337.537201 124.110161,337.898773 123.510513,338.197021 
	C122.443817,338.157959 122.118454,338.116699 121.793083,338.075409 
z"/>
<path fill="#E7E7E7" opacity="1.000000" stroke="none" 
	d="
M134.088623,346.576843 
	C133.924408,347.103638 133.596252,347.326294 133.117767,347.808167 
	C130.267487,345.933411 127.567535,343.799408 124.867577,341.665405 
	C125.244423,341.155334 125.621269,340.645264 125.998123,340.135193 
	C128.640305,342.181030 131.282486,344.226868 134.088623,346.576843 
z"/>
<path fill="#E7E7E7" opacity="1.000000" stroke="none" 
	d="
M121.933121,338.391602 
	C122.118454,338.116699 122.443817,338.157959 123.210403,338.426758 
	C123.125465,338.672089 122.599312,338.689941 121.933121,338.391602 
z"/>
<path fill="#050505" opacity="1.000000" stroke="none" 
	d="
M308.496063,260.479980 
	C303.427979,268.275970 298.582489,275.785095 293.737030,283.294220 
	C293.187805,283.375702 292.638580,283.457184 292.089355,283.538666 
	C291.144745,280.990479 289.416138,278.452881 289.381653,275.892426 
	C289.142487,258.131500 289.255554,240.365829 289.255554,221.443253 
	C299.204468,221.947708 308.887268,222.295898 318.538757,223.046585 
	C320.507446,223.199707 322.609650,224.563705 324.210785,225.897247 
	C327.414032,228.565140 328.661774,231.261368 325.472595,235.481812 
	C319.480713,243.411179 314.260010,251.923294 308.496063,260.479980 
z"/>
</svg>